<svg width="1584" height="349" viewBox="0 0 1584 349" fill="none" xmlns="http://www.w3.org/2000/svg">
<path d="M40.8875 282.315C88.3425 273.374 135.44 284.596 179.488 302.527C207.393 313.887 234.095 328.199 262.926 337.242C299.208 348.622 338.06 352.323 375.568 345.572C404.474 340.37 433.971 330.141 458.079 312.975C464.233 308.593 475.567 303.142 478.939 296.222C466.933 300.765 455.947 307.988 443.709 312.421C416.068 322.432 385.509 327.398 356.099 325.384C287.377 320.678 229.407 279.238 162.337 268.06C130.845 262.811 99.1545 262.641 68.2367 271.456C61.334 273.424 54.4754 275.577 47.8407 278.34C45.4392 279.34 42.2438 279.962 40.8875 282.315Z" fill="#254776"/>
<path d="M0 286.583C3.938 285.277 7.54202 282.034 11.1251 279.909C18.9753 275.255 26.9253 270.608 35.2295 266.793C67.0089 252.193 103.113 244.391 138.137 247.724C171.208 250.871 202.181 260.26 233.164 271.946C261.766 282.735 289.605 295.642 319.383 303.05C358.48 312.777 400.288 312.603 438.515 299.332C460.844 291.581 482.025 279.868 499.196 263.491C504.433 258.497 511.943 252.928 515 246.254C504.811 251.323 495.746 258.589 485.333 263.507C461.062 274.971 434.236 281.22 407.457 282.393C347.373 285.024 294.311 255.193 239.653 235.154C213.852 225.694 187.196 220.19 159.923 217.593C113.474 213.17 63.5893 227.955 27.8128 257.806C20.3024 264.072 12.7387 270.723 6.45245 278.239C4.23108 280.895 1.4199 283.397 0 286.583Z" fill="#3E84CF"/>
<path d="M101 208.987V125.037C101 124.739 101.133 124.456 101.363 124.266L234.671 14.2288C235.037 13.9267 235.565 13.9234 235.935 14.2211L372.627 124.266C372.863 124.456 373 124.742 373 125.045V262.71" stroke="#142843" stroke-width="28"/>
<rect x="200.198" y="135.048" width="33.6721" height="33.6721" rx="3" fill="#142843"/>
<rect x="239.763" y="135.048" width="33.6721" height="33.6721" rx="3" fill="#142843"/>
<rect x="239.763" y="172.929" width="33.6721" height="33.6721" rx="3" fill="#142843"/>
<rect x="200.198" y="172.929" width="33.6721" height="33.6721" rx="3" fill="#142843"/>
<rect x="312" y="29.7099" width="31" height="58" rx="3" fill="#142843"/>
<path d="M409.5 12.7099L414.982 38.288C416.556 45.6309 422.11 51.4734 429.364 53.416L451 59.2099L430.051 64.0183C422.431 65.7674 416.529 71.7967 414.942 79.4525L409.5 105.71L401.473 77.909C399.502 71.0836 394.059 65.8158 387.173 64.0701L368 59.2099L387.9 53.3245C394.382 51.4073 399.457 46.3451 401.391 39.8675L409.5 12.7099Z" fill="#3E84CF"/>
<path d="M442 87.7099L444.051 97.1407C445.648 104.483 451.226 110.311 458.491 112.228L466 114.21L459.171 115.755C451.543 117.48 445.621 123.493 444.012 131.145L442 140.71L438.741 129.588C436.745 122.773 431.285 117.528 424.395 115.807L418 114.21L425.115 112.136C431.605 110.245 436.7 105.203 438.66 98.7344L442 87.7099Z" fill="#3E84CF"/>
<path d="M1502.48 214.71V127.21H1539.86C1552.02 127.21 1561.48 130.043 1568.23 135.71C1574.98 141.293 1578.36 149.043 1578.36 158.96C1578.36 165.46 1576.81 171.085 1573.73 175.835C1570.65 180.502 1566.27 184.085 1560.61 186.585C1554.94 189.085 1548.19 190.335 1540.36 190.335H1513.73L1522.73 181.46V214.71H1502.48ZM1558.11 214.71L1536.23 182.96H1557.86L1579.98 214.71H1558.11ZM1522.73 183.71L1513.73 174.21H1539.23C1545.48 174.21 1550.15 172.877 1553.23 170.21C1556.31 167.46 1557.86 163.71 1557.86 158.96C1557.86 154.127 1556.31 150.377 1553.23 147.71C1550.15 145.043 1545.48 143.71 1539.23 143.71H1513.73L1522.73 134.085V183.71Z" fill="#3E84CF"/>
<path d="M1417.37 214.71V127.21H1483.49V143.46H1437.49V198.46H1485.12V214.71H1417.37ZM1435.99 178.21V162.46H1478.12V178.21H1435.99Z" fill="#3E84CF"/>
<path d="M1375.17 214.71V127.21H1395.42V214.71H1375.17ZM1315.17 214.71V127.21H1335.42V214.71H1315.17ZM1333.92 178.835V161.71H1376.67V178.835H1333.92Z" fill="#3E84CF"/>
<path d="M1262.95 216.21C1255.95 216.21 1249.25 215.293 1242.83 213.46C1236.41 211.543 1231.25 209.085 1227.33 206.085L1234.2 190.835C1237.95 193.502 1242.37 195.71 1247.45 197.46C1252.62 199.127 1257.83 199.96 1263.08 199.96C1267.08 199.96 1270.29 199.585 1272.7 198.835C1275.2 198.002 1277.04 196.877 1278.2 195.46C1279.37 194.043 1279.95 192.418 1279.95 190.585C1279.95 188.252 1279.04 186.418 1277.2 185.085C1275.37 183.668 1272.95 182.543 1269.95 181.71C1266.95 180.793 1263.62 179.96 1259.95 179.21C1256.37 178.377 1252.75 177.377 1249.08 176.21C1245.5 175.043 1242.2 173.543 1239.2 171.71C1236.2 169.877 1233.75 167.46 1231.83 164.46C1230 161.46 1229.08 157.627 1229.08 152.96C1229.08 147.96 1230.41 143.418 1233.08 139.335C1235.83 135.168 1239.91 131.877 1245.33 129.46C1250.83 126.96 1257.7 125.71 1265.95 125.71C1271.45 125.71 1276.87 126.377 1282.2 127.71C1287.54 128.96 1292.25 130.877 1296.33 133.46L1290.08 148.835C1286 146.502 1281.91 144.793 1277.83 143.71C1273.75 142.543 1269.75 141.96 1265.83 141.96C1261.91 141.96 1258.7 142.418 1256.2 143.335C1253.7 144.252 1251.91 145.46 1250.83 146.96C1249.75 148.377 1249.2 150.043 1249.2 151.96C1249.2 154.21 1250.12 156.043 1251.95 157.46C1253.79 158.793 1256.2 159.877 1259.2 160.71C1262.2 161.543 1265.5 162.377 1269.08 163.21C1272.75 164.043 1276.37 165.002 1279.95 166.085C1283.62 167.168 1286.95 168.627 1289.95 170.46C1292.95 172.293 1295.37 174.71 1297.2 177.71C1299.12 180.71 1300.08 184.502 1300.08 189.085C1300.08 194.002 1298.7 198.502 1295.95 202.585C1293.2 206.668 1289.08 209.96 1283.58 212.46C1278.16 214.96 1271.29 216.21 1262.95 216.21Z" fill="#3E84CF"/>
<path d="M1149.09 214.71V127.21H1215.22V143.46H1169.22V198.46H1216.84V214.71H1149.09ZM1167.72 178.21V162.46H1209.84V178.21H1167.72Z" fill="#3E84CF"/>
<path d="M1055.92 214.71V127.21H1093.3C1105.46 127.21 1114.92 130.043 1121.67 135.71C1128.42 141.293 1131.8 149.043 1131.8 158.96C1131.8 165.46 1130.26 171.085 1127.17 175.835C1124.09 180.502 1119.71 184.085 1114.05 186.585C1108.38 189.085 1101.63 190.335 1093.8 190.335H1067.17L1076.17 181.46V214.71H1055.92ZM1111.55 214.71L1089.67 182.96H1111.3L1133.42 214.71H1111.55ZM1076.17 183.71L1067.17 174.21H1092.67C1098.92 174.21 1103.59 172.877 1106.67 170.21C1109.76 167.46 1111.3 163.71 1111.3 158.96C1111.3 154.127 1109.76 150.377 1106.67 147.71C1103.59 145.043 1098.92 143.71 1092.67 143.71H1067.17L1076.17 134.085V183.71Z" fill="#3E84CF"/>
<path d="M974.839 214.71V127.21H1040.96V143.46H995.089V214.71H974.839ZM993.589 182.835V166.585H1035.59V182.835H993.589Z" fill="#3E84CF"/>
<path d="M880.931 214.71V127.21H947.056V143.46H901.056V198.46H948.681V214.71H880.931ZM899.556 178.21V162.46H941.681V178.21H899.556Z" fill="#142843"/>
<path d="M760.296 214.71V127.21H777.046L814.296 188.96H805.421L842.046 127.21H858.671L858.921 214.71H839.921L839.796 156.335H843.296L814.046 205.46H804.921L775.046 156.335H779.296V214.71H760.296Z" fill="#142843"/>
<path d="M696.077 216.21C689.16 216.21 682.744 215.085 676.827 212.835C670.994 210.585 665.91 207.418 661.577 203.335C657.327 199.252 653.994 194.46 651.577 188.96C649.244 183.46 648.077 177.46 648.077 170.96C648.077 164.46 649.244 158.46 651.577 152.96C653.994 147.46 657.369 142.668 661.702 138.585C666.035 134.502 671.119 131.335 676.952 129.085C682.785 126.835 689.119 125.71 695.952 125.71C702.869 125.71 709.202 126.835 714.952 129.085C720.785 131.335 725.827 134.502 730.077 138.585C734.41 142.668 737.785 147.46 740.202 152.96C742.619 158.377 743.827 164.377 743.827 170.96C743.827 177.46 742.619 183.502 740.202 189.085C737.785 194.585 734.41 199.377 730.077 203.46C725.827 207.46 720.785 210.585 714.952 212.835C709.202 215.085 702.91 216.21 696.077 216.21ZM695.952 198.96C699.869 198.96 703.452 198.293 706.702 196.96C710.035 195.627 712.952 193.71 715.452 191.21C717.952 188.71 719.869 185.752 721.202 182.335C722.619 178.918 723.327 175.127 723.327 170.96C723.327 166.793 722.619 163.002 721.202 159.585C719.869 156.168 717.952 153.21 715.452 150.71C713.035 148.21 710.16 146.293 706.827 144.96C703.494 143.627 699.869 142.96 695.952 142.96C692.035 142.96 688.41 143.627 685.077 144.96C681.827 146.293 678.952 148.21 676.452 150.71C673.952 153.21 671.994 156.168 670.577 159.585C669.244 163.002 668.577 166.793 668.577 170.96C668.577 175.043 669.244 178.835 670.577 182.335C671.994 185.752 673.91 188.71 676.327 191.21C678.827 193.71 681.744 195.627 685.077 196.96C688.41 198.293 692.035 198.96 695.952 198.96Z" fill="#142843"/>
<path d="M611.375 214.71V127.21H631.625V214.71H611.375ZM551.375 214.71V127.21H571.625V214.71H551.375ZM570.125 178.835V161.71H612.875V178.835H570.125Z" fill="#142843"/>
<path d="M1419.86 275.997C1418.93 275.997 1418.13 275.683 1417.48 275.054C1416.82 274.398 1416.49 273.578 1416.49 272.594C1416.49 271.555 1416.82 270.735 1417.48 270.134C1418.13 269.505 1418.93 269.191 1419.86 269.191C1420.79 269.191 1421.58 269.505 1422.23 270.134C1422.89 270.735 1423.22 271.555 1423.22 272.594C1423.22 273.578 1422.89 274.398 1422.23 275.054C1421.58 275.683 1420.79 275.997 1419.86 275.997Z" fill="#142843"/>
<path d="M1399.38 276.12C1397.14 276.12 1394.99 275.806 1392.94 275.177C1390.89 274.521 1389.27 273.687 1388.06 272.676L1389.91 268.535C1391.06 269.437 1392.48 270.188 1394.17 270.79C1395.87 271.391 1397.6 271.692 1399.38 271.692C1400.88 271.692 1402.1 271.528 1403.03 271.2C1403.96 270.872 1404.64 270.435 1405.08 269.888C1405.52 269.314 1405.73 268.672 1405.73 267.961C1405.73 267.086 1405.42 266.389 1404.79 265.87C1404.16 265.323 1403.34 264.9 1402.33 264.599C1401.35 264.271 1400.24 263.97 1399.01 263.697C1397.81 263.424 1396.59 263.109 1395.36 262.754C1394.16 262.371 1393.05 261.893 1392.04 261.319C1391.06 260.718 1390.25 259.925 1389.62 258.941C1388.99 257.957 1388.68 256.7 1388.68 255.169C1388.68 253.611 1389.09 252.19 1389.91 250.905C1390.76 249.593 1392.03 248.554 1393.72 247.789C1395.44 246.996 1397.62 246.6 1400.24 246.6C1401.96 246.6 1403.67 246.819 1405.37 247.256C1407.06 247.693 1408.54 248.322 1409.79 249.142L1408.11 253.283C1406.83 252.518 1405.5 251.957 1404.14 251.602C1402.77 251.219 1401.46 251.028 1400.2 251.028C1398.72 251.028 1397.52 251.206 1396.59 251.561C1395.69 251.916 1395.02 252.381 1394.58 252.955C1394.17 253.529 1393.97 254.185 1393.97 254.923C1393.97 255.798 1394.27 256.508 1394.87 257.055C1395.5 257.574 1396.3 257.984 1397.29 258.285C1398.3 258.586 1399.42 258.886 1400.65 259.187C1401.88 259.46 1403.1 259.775 1404.3 260.13C1405.53 260.485 1406.64 260.95 1407.62 261.524C1408.63 262.098 1409.44 262.877 1410.04 263.861C1410.67 264.845 1410.98 266.089 1410.98 267.592C1410.98 269.123 1410.56 270.544 1409.71 271.856C1408.89 273.141 1407.62 274.179 1405.9 274.972C1404.18 275.737 1402 276.12 1399.38 276.12Z" fill="#142843"/>
<path d="M1370.28 275.71V251.52H1360.77V247.01H1385.12V251.52H1375.61V275.71H1370.28Z" fill="#142843"/>
<path d="M1333.23 275.71V247.01H1345C1348.82 247.01 1351.82 247.912 1353.98 249.716C1356.16 251.52 1357.26 254.021 1357.26 257.219C1357.26 259.324 1356.76 261.141 1355.78 262.672C1354.8 264.175 1353.39 265.337 1351.56 266.157C1349.75 266.95 1347.58 267.346 1345.04 267.346H1336.18L1338.56 264.927V275.71H1333.23ZM1352.01 275.71L1344.75 265.296H1350.45L1357.75 275.71H1352.01ZM1338.56 265.501L1336.18 262.959H1344.79C1347.14 262.959 1348.91 262.453 1350.08 261.442C1351.28 260.431 1351.88 259.023 1351.88 257.219C1351.88 255.388 1351.28 253.98 1350.08 252.996C1348.91 252.012 1347.14 251.52 1344.79 251.52H1336.18L1338.56 248.896V265.501Z" fill="#142843"/>
<path d="M1296.82 275.71L1309.74 247.01H1314.98L1327.94 275.71H1322.36L1311.25 249.839H1313.38L1302.31 275.71H1296.82ZM1302.77 269.068L1304.2 264.886H1319.7L1321.13 269.068H1302.77Z" fill="#142843"/>
<path d="M1281.84 275.71V251.52H1272.33V247.01H1296.68V251.52H1287.17V275.71H1281.84Z" fill="#142843"/>
<path d="M1257.89 276.12C1255.65 276.12 1253.5 275.806 1251.45 275.177C1249.4 274.521 1247.78 273.687 1246.57 272.676L1248.42 268.535C1249.57 269.437 1250.99 270.188 1252.68 270.79C1254.38 271.391 1256.11 271.692 1257.89 271.692C1259.39 271.692 1260.61 271.528 1261.54 271.2C1262.47 270.872 1263.15 270.435 1263.59 269.888C1264.03 269.314 1264.24 268.672 1264.24 267.961C1264.24 267.086 1263.93 266.389 1263.3 265.87C1262.67 265.323 1261.85 264.9 1260.84 264.599C1259.86 264.271 1258.75 263.97 1257.52 263.697C1256.32 263.424 1255.1 263.109 1253.87 262.754C1252.67 262.371 1251.56 261.893 1250.55 261.319C1249.57 260.718 1248.76 259.925 1248.13 258.941C1247.5 257.957 1247.19 256.7 1247.19 255.169C1247.19 253.611 1247.6 252.19 1248.42 250.905C1249.27 249.593 1250.54 248.554 1252.23 247.789C1253.95 246.996 1256.13 246.6 1258.75 246.6C1260.47 246.6 1262.18 246.819 1263.88 247.256C1265.57 247.693 1267.05 248.322 1268.3 249.142L1266.62 253.283C1265.34 252.518 1264.01 251.957 1262.65 251.602C1261.28 251.219 1259.97 251.028 1258.71 251.028C1257.23 251.028 1256.03 251.206 1255.1 251.561C1254.2 251.916 1253.53 252.381 1253.09 252.955C1252.68 253.529 1252.48 254.185 1252.48 254.923C1252.48 255.798 1252.78 256.508 1253.38 257.055C1254.01 257.574 1254.81 257.984 1255.8 258.285C1256.81 258.586 1257.93 258.886 1259.16 259.187C1260.39 259.46 1261.61 259.775 1262.81 260.13C1264.04 260.485 1265.15 260.95 1266.13 261.524C1267.14 262.098 1267.95 262.877 1268.55 263.861C1269.18 264.845 1269.49 266.089 1269.49 267.592C1269.49 269.123 1269.07 270.544 1268.22 271.856C1267.4 273.141 1266.13 274.179 1264.41 274.972C1262.69 275.737 1260.51 276.12 1257.89 276.12Z" fill="#142843"/>
<path d="M1221.36 275.71V247.01H1226.69V275.71H1221.36ZM1201.19 275.71V247.01H1206.52V275.71H1201.19ZM1206.07 263.41V258.859H1221.77V263.41H1206.07Z" fill="#142843"/>
<path d="M1182.66 276.12C1180.42 276.12 1178.27 275.806 1176.22 275.177C1174.17 274.521 1172.55 273.687 1171.34 272.676L1173.19 268.535C1174.34 269.437 1175.76 270.188 1177.45 270.79C1179.15 271.391 1180.88 271.692 1182.66 271.692C1184.16 271.692 1185.38 271.528 1186.31 271.2C1187.24 270.872 1187.92 270.435 1188.36 269.888C1188.8 269.314 1189.02 268.672 1189.02 267.961C1189.02 267.086 1188.7 266.389 1188.07 265.87C1187.44 265.323 1186.62 264.9 1185.61 264.599C1184.63 264.271 1183.52 263.97 1182.29 263.697C1181.09 263.424 1179.87 263.109 1178.64 262.754C1177.44 262.371 1176.33 261.893 1175.32 261.319C1174.34 260.718 1173.53 259.925 1172.9 258.941C1172.27 257.957 1171.96 256.7 1171.96 255.169C1171.96 253.611 1172.37 252.19 1173.19 250.905C1174.04 249.593 1175.31 248.554 1177 247.789C1178.72 246.996 1180.9 246.6 1183.52 246.6C1185.24 246.6 1186.95 246.819 1188.65 247.256C1190.34 247.693 1191.82 248.322 1193.07 249.142L1191.39 253.283C1190.11 252.518 1188.78 251.957 1187.42 251.602C1186.05 251.219 1184.74 251.028 1183.48 251.028C1182 251.028 1180.8 251.206 1179.87 251.561C1178.97 251.916 1178.3 252.381 1177.86 252.955C1177.45 253.529 1177.25 254.185 1177.25 254.923C1177.25 255.798 1177.55 256.508 1178.15 257.055C1178.78 257.574 1179.59 257.984 1180.57 258.285C1181.58 258.586 1182.7 258.886 1183.93 259.187C1185.16 259.46 1186.38 259.775 1187.58 260.13C1188.81 260.485 1189.92 260.95 1190.9 261.524C1191.91 262.098 1192.72 262.877 1193.32 263.861C1193.95 264.845 1194.26 266.089 1194.26 267.592C1194.26 269.123 1193.84 270.544 1192.99 271.856C1192.17 273.141 1190.9 274.179 1189.18 274.972C1187.46 275.737 1185.28 276.12 1182.66 276.12Z" fill="#142843"/>
<path d="M1144.66 275.71V247.01H1165.61V251.479H1149.99V271.241H1166.18V275.71H1144.66ZM1149.58 263.328V258.941H1163.84V263.328H1149.58Z" fill="#142843"/>
<path d="M1113.03 275.71V247.01H1124.79C1128.62 247.01 1131.61 247.912 1133.77 249.716C1135.96 251.52 1137.05 254.021 1137.05 257.219C1137.05 259.324 1136.56 261.141 1135.58 262.672C1134.59 264.175 1133.19 265.337 1131.35 266.157C1129.55 266.95 1127.38 267.346 1124.84 267.346H1115.98L1118.36 264.927V275.71H1113.03ZM1131.81 275.71L1124.55 265.296H1130.25L1137.55 275.71H1131.81ZM1118.36 265.501L1115.98 262.959H1124.59C1126.94 262.959 1128.7 262.453 1129.88 261.442C1131.08 260.431 1131.68 259.023 1131.68 257.219C1131.68 255.388 1131.08 253.98 1129.88 252.996C1128.7 252.012 1126.94 251.52 1124.59 251.52H1115.98L1118.36 248.896V265.501Z" fill="#142843"/>
<path d="M1085.28 275.71V247.01H1106.23V251.479H1090.61V275.71H1085.28ZM1090.16 264.722V260.212H1104.47V264.722H1090.16Z" fill="#142843"/>
<path d="M1048.84 275.997C1047.91 275.997 1047.12 275.683 1046.46 275.054C1045.8 274.398 1045.48 273.578 1045.48 272.594C1045.48 271.555 1045.8 270.735 1046.46 270.134C1047.12 269.505 1047.91 269.191 1048.84 269.191C1049.77 269.191 1050.56 269.505 1051.22 270.134C1051.87 270.735 1052.2 271.555 1052.2 272.594C1052.2 273.578 1051.87 274.398 1051.22 275.054C1050.56 275.683 1049.77 275.997 1048.84 275.997Z" fill="#142843"/>
<path d="M1028.36 276.12C1026.12 276.12 1023.97 275.806 1021.92 275.177C1019.87 274.521 1018.25 273.687 1017.05 272.676L1018.89 268.535C1020.04 269.437 1021.46 270.188 1023.15 270.79C1024.85 271.391 1026.58 271.692 1028.36 271.692C1029.86 271.692 1031.08 271.528 1032.01 271.2C1032.94 270.872 1033.62 270.435 1034.06 269.888C1034.5 269.314 1034.72 268.672 1034.72 267.961C1034.72 267.086 1034.4 266.389 1033.77 265.87C1033.14 265.323 1032.32 264.9 1031.31 264.599C1030.33 264.271 1029.22 263.97 1027.99 263.697C1026.79 263.424 1025.57 263.109 1024.34 262.754C1023.14 262.371 1022.03 261.893 1021.02 261.319C1020.04 260.718 1019.23 259.925 1018.6 258.941C1017.97 257.957 1017.66 256.7 1017.66 255.169C1017.66 253.611 1018.07 252.19 1018.89 250.905C1019.74 249.593 1021.01 248.554 1022.7 247.789C1024.43 246.996 1026.6 246.6 1029.22 246.6C1030.94 246.6 1032.65 246.819 1034.35 247.256C1036.04 247.693 1037.52 248.322 1038.78 249.142L1037.09 253.283C1035.81 252.518 1034.48 251.957 1033.12 251.602C1031.75 251.219 1030.44 251.028 1029.18 251.028C1027.71 251.028 1026.5 251.206 1025.57 251.561C1024.67 251.916 1024 252.381 1023.56 252.955C1023.15 253.529 1022.95 254.185 1022.95 254.923C1022.95 255.798 1023.25 256.508 1023.85 257.055C1024.48 257.574 1025.29 257.984 1026.27 258.285C1027.28 258.586 1028.4 258.886 1029.63 259.187C1030.86 259.46 1032.08 259.775 1033.28 260.13C1034.51 260.485 1035.62 260.95 1036.6 261.524C1037.61 262.098 1038.42 262.877 1039.02 263.861C1039.65 264.845 1039.96 266.089 1039.96 267.592C1039.96 269.123 1039.54 270.544 1038.69 271.856C1037.87 273.141 1036.6 274.179 1034.88 274.972C1033.16 275.737 1030.99 276.12 1028.36 276.12Z" fill="#142843"/>
<path d="M990.358 275.71V247.01H1011.31V251.479H995.688V271.241H1011.88V275.71H990.358ZM995.278 263.328V258.941H1009.55V263.328H995.278Z" fill="#142843"/>
<path d="M972.573 276.12C970.386 276.12 968.35 275.765 966.464 275.054C964.605 274.316 962.979 273.291 961.585 271.979C960.218 270.64 959.152 269.068 958.387 267.264C957.621 265.46 957.239 263.492 957.239 261.36C957.239 259.228 957.621 257.26 958.387 255.456C959.152 253.652 960.232 252.094 961.626 250.782C963.02 249.443 964.646 248.418 966.505 247.707C968.363 246.969 970.4 246.6 972.614 246.6C974.964 246.6 977.11 247.01 979.051 247.83C980.991 248.623 982.631 249.812 983.971 251.397L980.527 254.636C979.488 253.515 978.326 252.682 977.042 252.135C975.757 251.561 974.363 251.274 972.86 251.274C971.356 251.274 969.976 251.52 968.719 252.012C967.489 252.504 966.409 253.201 965.48 254.103C964.578 255.005 963.867 256.071 963.348 257.301C962.856 258.531 962.61 259.884 962.61 261.36C962.61 262.836 962.856 264.189 963.348 265.419C963.867 266.649 964.578 267.715 965.48 268.617C966.409 269.519 967.489 270.216 968.719 270.708C969.976 271.2 971.356 271.446 972.86 271.446C974.363 271.446 975.757 271.173 977.042 270.626C978.326 270.052 979.488 269.191 980.527 268.043L983.971 271.323C982.631 272.881 980.991 274.07 979.051 274.89C977.11 275.71 974.951 276.12 972.573 276.12Z" fill="#142843"/>
<path d="M923.28 275.71L936.195 247.01H941.443L954.399 275.71H948.823L937.712 249.839H939.844L928.774 275.71H923.28ZM929.225 269.068L930.66 264.886H946.158L947.593 269.068H929.225Z" fill="#142843"/>
<path d="M897.792 275.71V247.01H909.6C912.142 247.01 914.315 247.42 916.119 248.24C917.95 249.06 919.358 250.235 920.342 251.766C921.326 253.297 921.818 255.114 921.818 257.219C921.818 259.324 921.326 261.141 920.342 262.672C919.358 264.203 917.95 265.378 916.119 266.198C914.315 267.018 912.142 267.428 909.6 267.428H900.744L903.122 264.927V275.71H897.792ZM903.122 265.501L900.744 262.918H909.354C911.705 262.918 913.468 262.426 914.643 261.442C915.846 260.431 916.447 259.023 916.447 257.219C916.447 255.388 915.846 253.98 914.643 252.996C913.468 252.012 911.705 251.52 909.354 251.52H900.744L903.122 248.896V265.501Z" fill="#142843"/>
<path d="M879.264 276.12C877.023 276.12 874.877 275.806 872.827 275.177C870.777 274.521 869.151 273.687 867.948 272.676L869.793 268.535C870.941 269.437 872.362 270.188 874.057 270.79C875.752 271.391 877.487 271.692 879.264 271.692C880.767 271.692 881.984 271.528 882.913 271.2C883.842 270.872 884.526 270.435 884.963 269.888C885.4 269.314 885.619 268.672 885.619 267.961C885.619 267.086 885.305 266.389 884.676 265.87C884.047 265.323 883.227 264.9 882.216 264.599C881.232 264.271 880.125 263.97 878.895 263.697C877.692 263.424 876.476 263.109 875.246 262.754C874.043 262.371 872.936 261.893 871.925 261.319C870.941 260.718 870.135 259.925 869.506 258.941C868.877 257.957 868.563 256.7 868.563 255.169C868.563 253.611 868.973 252.19 869.793 250.905C870.64 249.593 871.911 248.554 873.606 247.789C875.328 246.996 877.501 246.6 880.125 246.6C881.847 246.6 883.555 246.819 885.25 247.256C886.945 247.693 888.421 248.322 889.678 249.142L887.997 253.283C886.712 252.518 885.387 251.957 884.02 251.602C882.653 251.219 881.341 251.028 880.084 251.028C878.608 251.028 877.405 251.206 876.476 251.561C875.574 251.916 874.904 252.381 874.467 252.955C874.057 253.529 873.852 254.185 873.852 254.923C873.852 255.798 874.153 256.508 874.754 257.055C875.383 257.574 876.189 257.984 877.173 258.285C878.184 258.586 879.305 258.886 880.535 259.187C881.765 259.46 882.981 259.775 884.184 260.13C885.414 260.485 886.521 260.95 887.505 261.524C888.516 262.098 889.323 262.877 889.924 263.861C890.553 264.845 890.867 266.089 890.867 267.592C890.867 269.123 890.443 270.544 889.596 271.856C888.776 273.141 887.505 274.179 885.783 274.972C884.061 275.737 881.888 276.12 879.264 276.12Z" fill="#142843"/>
<path d="M822.563 275.71V247.01H826.95L844.949 269.109H842.776V247.01H848.065V275.71H843.678L825.679 253.611H827.852V275.71H822.563Z" fill="#142843"/>
<path d="M786.154 275.71L799.069 247.01H804.317L817.273 275.71H811.697L800.586 249.839H802.718L791.648 275.71H786.154ZM792.099 269.068L793.534 264.886H809.032L810.467 269.068H792.099Z" fill="#142843"/>
<path d="M761.107 275.71V247.01H782.058V251.479H766.437V271.241H782.632V275.71H761.107ZM766.027 263.328V258.941H780.295V263.328H766.027Z" fill="#142843"/>
<path d="M734.923 275.71V247.01H740.253V271.2H755.259V275.71H734.923Z" fill="#142843"/>
<path d="M717.138 276.12C714.951 276.12 712.915 275.765 711.029 275.054C709.17 274.316 707.544 273.291 706.15 271.979C704.783 270.64 703.717 269.068 702.952 267.264C702.187 265.46 701.804 263.492 701.804 261.36C701.804 259.228 702.187 257.26 702.952 255.456C703.717 253.652 704.797 252.094 706.191 250.782C707.585 249.443 709.211 248.418 711.07 247.707C712.929 246.969 714.965 246.6 717.179 246.6C719.53 246.6 721.675 247.01 723.616 247.83C725.557 248.623 727.197 249.812 728.536 251.397L725.092 254.636C724.053 253.515 722.892 252.682 721.607 252.135C720.322 251.561 718.928 251.274 717.425 251.274C715.922 251.274 714.541 251.52 713.284 252.012C712.054 252.504 710.974 253.201 710.045 254.103C709.143 255.005 708.432 256.071 707.913 257.301C707.421 258.531 707.175 259.884 707.175 261.36C707.175 262.836 707.421 264.189 707.913 265.419C708.432 266.649 709.143 267.715 710.045 268.617C710.974 269.519 712.054 270.216 713.284 270.708C714.541 271.2 715.922 271.446 717.425 271.446C718.928 271.446 720.322 271.173 721.607 270.626C722.892 270.052 724.053 269.191 725.092 268.043L728.536 271.323C727.197 272.881 725.557 274.07 723.616 274.89C721.675 275.71 719.516 276.12 717.138 276.12Z" fill="#142843"/>
<line x1="553" y1="261.71" x2="683" y2="261.71" stroke="#3E84CF" stroke-width="4"/>
<line x1="1454" y1="261.71" x2="1584" y2="261.71" stroke="#3E84CF" stroke-width="4"/>
</svg>
