<svg width="515" height="349" viewBox="0 0 515 349" fill="none" xmlns="http://www.w3.org/2000/svg">
<path d="M40.8875 282.315C88.3425 273.374 135.44 284.596 179.488 302.527C207.393 313.887 234.095 328.199 262.926 337.242C299.208 348.622 338.06 352.323 375.568 345.572C404.474 340.37 433.971 330.141 458.079 312.975C464.233 308.593 475.567 303.142 478.939 296.222C466.933 300.765 455.947 307.988 443.709 312.421C416.068 322.432 385.509 327.398 356.099 325.384C287.377 320.678 229.407 279.238 162.337 268.06C130.845 262.811 99.1545 262.641 68.2367 271.456C61.334 273.424 54.4754 275.577 47.8407 278.34C45.4392 279.34 42.2438 279.962 40.8875 282.315Z" fill="#254776"/>
<path d="M0 286.583C3.938 285.277 7.54202 282.034 11.1251 279.909C18.9753 275.255 26.9253 270.608 35.2295 266.793C67.0089 252.193 103.113 244.391 138.137 247.724C171.208 250.871 202.181 260.26 233.164 271.946C261.766 282.735 289.605 295.642 319.383 303.05C358.48 312.777 400.288 312.603 438.515 299.332C460.844 291.581 482.025 279.868 499.196 263.491C504.433 258.497 511.943 252.928 515 246.254C504.811 251.323 495.746 258.589 485.333 263.507C461.062 274.971 434.236 281.22 407.457 282.393C347.373 285.024 294.311 255.193 239.653 235.154C213.852 225.694 187.196 220.19 159.923 217.593C113.474 213.17 63.5893 227.955 27.8128 257.806C20.3024 264.072 12.7387 270.723 6.45245 278.239C4.23108 280.895 1.4199 283.397 0 286.583Z" fill="#3E84CF"/>
<path d="M101 208.987V125.037C101 124.739 101.133 124.456 101.363 124.266L234.671 14.2288C235.037 13.9267 235.565 13.9234 235.935 14.2211L372.627 124.266C372.863 124.456 373 124.742 373 125.045V262.71" stroke="#142843" stroke-width="28"/>
<rect x="200.198" y="135.048" width="33.6721" height="33.6721" rx="3" fill="#142843"/>
<rect x="239.763" y="135.048" width="33.6721" height="33.6721" rx="3" fill="#142843"/>
<rect x="239.763" y="172.929" width="33.6721" height="33.6721" rx="3" fill="#142843"/>
<rect x="200.198" y="172.929" width="33.6721" height="33.6721" rx="3" fill="#142843"/>
<rect x="312" y="29.7099" width="31" height="58" rx="3" fill="#142843"/>
<path d="M409.5 12.7099L414.982 38.288C416.556 45.6309 422.11 51.4734 429.364 53.416L451 59.2099L430.051 64.0183C422.431 65.7674 416.529 71.7967 414.942 79.4525L409.5 105.71L401.473 77.909C399.502 71.0836 394.059 65.8159 387.173 64.0701L368 59.2099L387.9 53.3245C394.382 51.4073 399.457 46.3451 401.391 39.8675L409.5 12.7099Z" fill="#3E84CF"/>
<path d="M442 87.7099L444.051 97.1407C445.648 104.483 451.226 110.311 458.491 112.228L466 114.21L459.171 115.755C451.543 117.48 445.621 123.493 444.012 131.145L442 140.71L438.741 129.588C436.745 122.773 431.285 117.528 424.395 115.807L418 114.21L425.115 112.136C431.605 110.245 436.7 105.203 438.66 98.7344L442 87.7099Z" fill="#3E84CF"/>
</svg>
